<?xml version="1.0" encoding="utf-8"?>
<!-- Generator: Adobe Illustrator 22.0.1, SVG Export Plug-In . SVG Version: 6.00 Build 0)  -->
<svg version="1.1" id="Layer_1" xmlns="http://www.w3.org/2000/svg" xmlns:xlink="http://www.w3.org/1999/xlink" x="0px" y="0px"
	 width="149px" height="44.8px" viewBox="0 0 149 44.8" style="enable-background:new 0 0 149 44.8;" xml:space="preserve">
<style type="text/css">
	.st0{fill:#FF9900;}
	.st1{fill:#FFFFFF;}
</style>
<path class="st0" d="M92.4,35.1c-8.6,6.4-21.2,9.8-32,9.8c-15.2,0-28.7-5.6-39.1-14.9c-0.8-0.7-0.1-1.7,0.9-1.2
	c11.1,6.5,24.9,10.3,39.1,10.3c9.6,0,20.1-2,29.8-6.1C92.6,32.5,93.8,34,92.4,35.1L92.4,35.1z"/>
<path class="st0" d="M96,30.9c-1.1-1.4-7.3-0.7-10.1-0.3c-0.8,0.1-1-0.6-0.2-1.2c5-3.5,13.1-2.5,14-1.3s-0.3,9.3-4.9,13.2
	c-0.7,0.6-1.4,0.3-1.1-0.5C94.8,38.2,97.1,32.4,96,30.9z"/>
<path d="M86.1,4.9V1.5c0-0.5,0.4-0.8,0.8-0.8h15.2c0.5,0,0.9,0.4,0.9,0.8v2.9c0,0.5-0.4,1.1-1.2,2.1L94,17.7c2.9-0.1,6,0.4,8.6,1.8
	c0.6,0.3,0.7,0.8,0.8,1.3v3.6c0,0.5-0.5,1.1-1.1,0.8c-4.7-2.5-10.9-2.7-16,0.1c-0.5,0.3-1.1-0.3-1.1-0.8v-3.4c0-0.5,0-1.5,0.6-2.3
	l9.1-13H87C86.5,5.7,86.1,5.4,86.1,4.9L86.1,4.9z"/>
<path d="M30.8,26h-4.6c-0.4-0.1-0.8-0.4-0.8-0.8V1.6c0-0.5,0.4-0.8,0.9-0.8h4.3c0.5,0,0.8,0.4,0.8,0.8v3.1h0.1
	c1.1-3,3.2-4.4,6.1-4.4s4.7,1.4,6,4.4c1.1-3,3.7-4.4,6.4-4.4c1.9,0,4,0.8,5.3,2.6c1.5,2,1.2,4.9,1.2,7.4v14.9c0,0.5-0.4,0.8-0.9,0.8
	H51c-0.5-0.1-0.8-0.4-0.8-0.8V12.6c0-1,0.1-3.5-0.1-4.4c-0.4-1.6-1.4-2-2.7-2c-1.1,0-2.3,0.7-2.8,1.9s-0.4,3.2-0.4,4.5v12.5
	c0,0.5-0.4,0.8-0.9,0.8h-4.6c-0.5-0.1-0.8-0.4-0.8-0.8V12.6c0-2.6,0.4-6.5-2.8-6.5c-3.3,0-3.2,3.8-3.2,6.5v12.5
	C31.7,25.6,31.4,26,30.8,26L30.8,26z"/>
<path d="M116,0.2c6.8,0,10.6,5.9,10.6,13.3c0,7.2-4.1,13-10.6,13c-6.7,0-10.3-5.9-10.3-13.2C105.6,6,109.4,0.2,116,0.2L116,0.2z"/>
<path class="st1" d="M116,5.1c-3.4,0-3.6,4.7-3.6,7.5s-0.1,9,3.6,9c3.6,0,3.8-5,3.8-8c0-2-0.1-4.4-0.7-6.3
	C118.6,5.7,117.5,5.1,116,5.1L116,5.1z"/>
<path d="M135.4,26h-4.6c-0.5-0.1-0.8-0.4-0.8-0.8V1.5c0.1-0.4,0.4-0.8,0.9-0.8h4.3c0.4,0,0.7,0.3,0.8,0.7V5h0.1
	c1.3-3.2,3.1-4.8,6.3-4.8c2,0,4.1,0.7,5.4,2.8c1.2,1.9,1.2,5,1.2,7.3v14.9c-0.1,0.4-0.4,0.7-0.9,0.7h-4.6c-0.4-0.1-0.8-0.4-0.8-0.7
	V12.4c0-2.6,0.3-6.4-2.9-6.4c-1.1,0-2.1,0.7-2.7,1.9c-0.6,1.5-0.7,2.9-0.7,4.5v12.8C136.3,25.6,135.9,26,135.4,26L135.4,26z"/>
<path d="M19.6,26.3c-0.3,0.3-0.7,0.3-1.1,0.1c-1.5-1.3-1.8-1.9-2.7-3.1c-2.5,2.6-4.3,3.3-7.6,3.3c-3.8,0.1-6.8-2.3-6.8-7.1
	c0-3.8,2-6.3,4.9-7.5c2.5-1.1,6-1.3,8.7-1.6V9.8c0-1.1,0.1-2.4-0.6-3.3c-0.6-0.8-1.6-1.2-2.6-1.2c-1.8,0-3.3,0.9-3.7,2.8
	C8,8.4,7.8,8.9,7.4,8.9L2.9,8.4C2.5,8.3,2.1,8,2.2,7.5C3.3,2,8.1,0.4,12.5,0.4c2.2,0,5.2,0.6,7,2.3c2.2,2.1,2,4.9,2,7.9v7.2
	c0,2.1,0.9,3.1,1.7,4.3c0.3,0.4,0.4,0.9,0,1.2C22.3,24.1,20.6,25.5,19.6,26.3L19.6,26.3z"/>
<path class="st1" d="M13.8,15.7c0,1.8,0.1,3.3-0.8,4.9c-0.7,1.3-1.9,2.1-3.2,2.1C8,22.7,7,21.3,7,19.4c0-3.9,3.5-4.7,6.8-4.7V15.7z"
	/>
<path d="M77.9,25.9c-0.3,0.3-0.7,0.3-1.1,0.1c-1.5-1.3-1.8-1.9-2.7-3.1c-2.5,2.6-4.3,3.3-7.6,3.3c-3.9,0-6.9-2.4-6.9-7.2
	c0-3.8,2-6.3,4.9-7.5c2.5-1.1,6-1.3,8.7-1.6V9.4c0-1.1,0.1-2.4-0.6-3.3C72,5.3,71,4.9,70,4.9c-1.8,0-3.3,0.9-3.7,2.8
	c-0.1,0.4-0.4,0.8-0.8,0.8L61.1,8c-0.4-0.1-0.8-0.4-0.7-0.9c1-5.4,5.9-7.1,10.3-7.1c2.2,0,5.2,0.6,7,2.3c2.2,2.1,2,4.9,2,7.9v7.2
	c0,2.1,0.9,3.1,1.7,4.3c0.3,0.4,0.4,0.9,0,1.2C80.5,23.7,78.8,25.1,77.9,25.9L77.9,25.9z"/>
<path class="st1" d="M72,15.8c0,1.8,0.1,3.3-0.8,4.9c-0.7,1.3-1.9,2.1-3.2,2.1c-1.8,0-2.8-1.4-2.8-3.3c0-3.9,3.5-4.7,6.8-4.7V15.8z"
	/>
</svg>
