<?xml version="1.0" encoding="utf-8"?>
<!-- Generator: Adobe Illustrator 22.0.1, SVG Export Plug-In . SVG Version: 6.00 Build 0)  -->
<svg version="1.1" id="Layer_1" xmlns="http://www.w3.org/2000/svg" xmlns:xlink="http://www.w3.org/1999/xlink" x="0px" y="0px"
	 width="181.1px" height="25.6px" viewBox="0 0 181.1 25.6" style="enable-background:new 0 0 181.1 25.6;" xml:space="preserve">
<style type="text/css">
	.st0{fill:#D01F31;}
</style>
<g>
	<path class="st0" d="M31.8,0L26,7.9h31.5c1.6,0,1.6,0.6,0.8,1.7s-2.1,2.9-2.9,4c-0.4,0.6-1.1,1.6,1.3,1.6h12.9c0,0,2.1-2.8,3.8-5.2
		c2.4-3.3,0.3-10-8.2-10H31.8z"/>
	<path class="st0" d="M23.7,25.6L35.3,9.8h14.4c1.6,0,1.6,0.6,0.8,1.7s-2.1,2.9-2.9,4C47.2,16,46.5,17,48.9,17h19.3
		c-1.6,2.2-6.8,8.6-16.2,8.6H23.7L23.7,25.6z M90.3,17L84,25.6H67.3l6.3-8.6H90.3z M115.7,15.1H75.1L86.2,0h16.6l-6.4,8.7h7.4
		l6.4-8.7h16.6L115.7,15.1z M114.3,17l-6.3,8.6H91.4l6.3-8.6H114.3L114.3,17z M0,20.4h24.5l-1.3,1.8H0V20.4z M0,17h27l-1.3,1.8H0V17
		z M0,23.8h22l-1.3,1.8H0V23.8z M181.1,22.2h-24.4l1.3-1.8h23.1L181.1,22.2L181.1,22.2z M181.1,25.6h-26.9l1.3-1.8H181L181.1,25.6
		L181.1,25.6z M160.5,17h20.6v1.8h-21.9L160.5,17z M149.9,0l-11.1,15.1h-17.6L132.3,0H149.9L149.9,0z M119.7,17c0,0-1.2,1.7-1.8,2.5
		c-2.1,2.8-0.2,6.1,6.6,6.1h26.7l6.3-8.6H119.7z"/>
</g>
</svg>
