<?xml version="1.0" encoding="utf-8"?>
<!-- Generator: Adobe Illustrator 22.0.1, SVG Export Plug-In . SVG Version: 6.00 Build 0)  -->
<svg version="1.1" id="Layer_1" xmlns="http://www.w3.org/2000/svg" xmlns:xlink="http://www.w3.org/1999/xlink" x="0px" y="0px"
	 width="90.8px" height="76.3px" viewBox="0 0 90.8 76.3" style="enable-background:new 0 0 90.8 76.3;" xml:space="preserve">
<style type="text/css">
	.st0{fill:#010101;}
</style>
<g>
	<path class="st0" d="M41,17.4c0,3.8-1,7-3.2,9.7s-5.3,4.6-9.8,5.9v0.2l16.2,22.4H32.4L17.6,34.4h-6.9v21.1H0.8V1h16.5
		c2.7,0,5.3,0.2,7.7,0.5s4.4,0.8,6.1,1.4c3.2,1.2,5.6,3.1,7.4,5.4C40.2,10.7,41,13.7,41,17.4z M15.7,26.1c2.3,0,4.2-0.1,5.8-0.3
		c1.6-0.2,2.9-0.5,4-0.9c2-0.7,3.4-1.8,4.2-3.1c0.8-1.3,1.1-2.8,1.1-4.5c0-1.4-0.3-2.7-0.9-3.9c-0.6-1.1-1.6-2-3.1-2.7
		c-1-0.4-2.2-0.7-3.5-1c-1.5-0.2-3.2-0.3-5.3-0.3h-7.1v16.7H15.7z M77.5,8.4c-2.7,0-5.3,0.5-7.5,1.4s-4.3,2.2-5.9,3.9
		s-2.9,3.8-3.9,6.3c-0.9,2.5-1.4,5.4-1.4,8.6s0.4,6.1,1.3,8.5c0.8,2.4,2,4.4,3.6,6.1c1.5,1.6,3.5,2.8,5.7,3.7
		c2.3,0.8,4.8,1.2,7.7,1.2c2.1,0,4.2-0.2,6.3-0.5c2.2-0.3,4.1-0.8,6.1-1.5v8.6c-1.9,0.6-4,1-6.1,1.3s-4.4,0.5-6.9,0.5
		c-4.6,0-8.6-0.7-12.2-1.9c-3.5-1.3-6.5-3.2-8.8-5.6s-4.1-5.3-5.3-8.6c-1.2-3.3-1.8-7-1.8-11.1c0-4.1,0.7-8,1.9-11.5
		c1.3-3.6,3.1-6.6,5.5-9.2c2.3-2.6,5.3-4.7,8.9-6.1C68.4,0.8,72.4,0,76.9,0c2.3,0,4.5,0.2,6.5,0.5c2.1,0.3,4,0.7,5.6,1.3v8.5
		c-2.2-0.6-4.2-1.1-6.1-1.4C81.1,8.6,79.3,8.4,77.5,8.4z M0.2,63.6h90.7v3.2H0.2V63.6z M4.8,71.4c0,0.5-0.2,0.9-0.4,1.2
		s-0.7,0.6-1.2,0.7l1.9,2.7H3.8L2,73.5H1.2v2.6H0v-6.6h2c0.3,0,0.7,0,0.9,0.1c0.3,0,0.6,0.1,0.7,0.2c0.4,0.2,0.7,0.4,0.9,0.7
		C4.8,70.6,4.8,71.1,4.8,71.4z M1.8,72.5h0.7c0.2,0,0.3-0.1,0.5-0.1c0.2-0.1,0.4-0.2,0.5-0.4s0.2-0.3,0.2-0.6c0-0.2,0-0.3-0.1-0.5
		s-0.2-0.2-0.4-0.3c-0.1-0.1-0.2-0.1-0.4-0.1H1.2v2L1.8,72.5L1.8,72.5z M9.9,74.4H7.4l-0.7,1.7H5.4L8,69.5h1.1l2.6,6.6h-1.2
		L9.9,74.4z M8.6,71.1c-0.2,0.7-0.4,1.3-0.7,1.7l-0.2,0.6h1.7l-0.3-0.6C9,72.3,8.9,71.8,8.6,71.1z M15.9,72.6
		c0.5,0.7,0.9,1.3,1.1,1.8c0-0.9-0.1-1.4-0.1-1.9v-3h1.2v6.6H17l-2.2-3.1c-0.4-0.5-0.8-1.1-1.2-1.9c0,0.8,0.1,1.4,0.1,1.9v3h-1.2
		v-6.6h1.3L15.9,72.6z M19.5,76.1v-6.6h1.2v3l2.5-3h1.5L22,72.7l3,3.3h-1.5l-2.7-3v3L19.5,76.1L19.5,76.1z M25.7,76.1v-6.6h1.2v6.6
		H25.7z M31.6,72.6c0.5,0.7,0.9,1.3,1.1,1.8c0-0.9-0.1-1.4-0.1-1.9v-3h1.2v6.6h-1.3l-2.2-3.1c-0.4-0.5-0.8-1.1-1.2-1.9
		c0.1,0.8,0.1,1.4,0.1,1.9v3h-1v-6.6h1.3L31.6,72.6z M39.4,73.6H38v-1.1h2.7v3.4c-0.1,0-0.2,0.1-0.4,0.1s-0.3,0.1-0.5,0.1
		s-0.4,0.1-0.6,0.1h-0.6c-0.6,0-1.1-0.1-1.5-0.2c-0.5-0.2-0.8-0.4-1.1-0.7c-0.3-0.3-0.5-0.7-0.7-1.1c-0.2-0.4-0.2-0.8-0.2-1.3
		c0-0.3,0-0.7,0.1-1s0.2-0.6,0.3-0.9c0.2-0.2,0.3-0.5,0.6-0.7c0.2-0.2,0.5-0.4,0.7-0.6c0.2-0.2,0.6-0.2,0.9-0.3s0.7-0.1,1-0.1
		c0.3,0,0.7,0,1,0.1s0.6,0.1,0.7,0.2v1.1c-0.2-0.1-0.5-0.2-0.8-0.2c-0.2-0.1-0.5-0.1-0.8-0.1c-0.3,0-0.7,0.1-1,0.2
		c-0.3,0.1-0.6,0.2-0.8,0.5c-0.2,0.2-0.4,0.5-0.6,0.8c-0.2,0.3-0.2,0.7-0.2,1.1c0,0.8,0.2,1.4,0.7,1.8c0.4,0.4,1,0.6,1.7,0.6H39
		c0.2,0,0.2,0,0.4-0.1L39.4,73.6z M46.5,70.4c-0.3,0-0.7,0.1-0.9,0.2s-0.5,0.2-0.7,0.5l-0.5,0.7c-0.1,0.3-0.2,0.7-0.2,1.1
		s0.1,0.7,0.2,1.1c0.1,0.3,0.2,0.6,0.4,0.7s0.4,0.3,0.7,0.5c0.2,0.1,0.6,0.2,1,0.2c0.2,0,0.5,0,0.7-0.1c0.2,0,0.5-0.1,0.7-0.2v1.1
		c-0.2,0.1-0.5,0.1-0.7,0.2c-0.2,0-0.6,0.1-0.8,0.1c-0.6,0-1-0.1-1.5-0.2c-0.4-0.2-0.8-0.4-1-0.7c-0.3-0.3-0.5-0.7-0.7-1.1
		C43.1,74,43,73.5,43,73s0.1-1,0.2-1.4s0.4-0.8,0.7-1.1c0.3-0.3,0.7-0.6,1-0.7c0.4-0.2,0.9-0.2,1.5-0.2c0.2,0,0.6,0,0.8,0.1
		c0.2,0,0.5,0.1,0.7,0.2v1.1c-0.2-0.1-0.5-0.2-0.7-0.2C46.9,70.4,46.7,70.4,46.5,70.4z M52.7,74.4h-2.5l-0.7,1.7h-1.3l2.6-6.6H52
		l2.6,6.6h-1.3L52.7,74.4z M51.4,71.1c-0.2,0.7-0.4,1.3-0.7,1.7l-0.2,0.6h1.7L52,72.8C51.9,72.3,51.7,71.8,51.4,71.1z M60.2,71.4
		c0,0.5-0.2,0.9-0.4,1.2s-0.7,0.6-1.2,0.7l1.9,2.7h-1.5l-1.8-2.6h-0.8v2.6h-1.2v-6.6h2c0.3,0,0.7,0,0.9,0.1c0.3,0,0.6,0.1,0.7,0.2
		c0.4,0.2,0.7,0.4,0.9,0.7C60.1,70.6,60.2,71.1,60.2,71.4z M57.1,72.5h0.7c0.2,0,0.3-0.1,0.5-0.1c0.2-0.1,0.4-0.2,0.5-0.4
		c0.2-0.2,0.2-0.3,0.2-0.6c0-0.2,0-0.3-0.1-0.5s-0.2-0.2-0.4-0.3c-0.1-0.1-0.2-0.1-0.4-0.1h-1.5v2L57.1,72.5L57.1,72.5L57.1,72.5z
		 M67.6,72.8c0,0.5-0.1,1-0.2,1.4c-0.2,0.4-0.3,0.8-0.7,1.1c-0.2,0.3-0.7,0.6-1,0.7c-0.4,0.2-0.9,0.2-1.4,0.2c-0.5,0-1-0.1-1.4-0.2
		c-0.4-0.2-0.7-0.4-1-0.7c-0.2-0.3-0.5-0.7-0.7-1.1c-0.2-0.4-0.2-0.9-0.2-1.4s0.1-1,0.2-1.4s0.3-0.8,0.7-1.1c0.2-0.3,0.7-0.6,1-0.7
		c0.4-0.2,0.9-0.2,1.4-0.2c0.5,0,1,0.1,1.4,0.2c0.4,0.2,0.7,0.4,1,0.7c0.2,0.3,0.5,0.7,0.7,1.1C67.5,71.8,67.6,72.3,67.6,72.8z
		 M66.3,72.8c0-0.4-0.1-0.7-0.2-1.1s-0.2-0.6-0.4-0.7s-0.4-0.3-0.7-0.5c-0.2-0.1-0.5-0.2-0.8-0.2s-0.6,0.1-0.8,0.2S63,70.8,62.8,71
		c-0.2,0.2-0.3,0.5-0.4,0.7c-0.1,0.3-0.2,0.7-0.2,1.1s0.1,0.7,0.2,1.1c0.1,0.3,0.2,0.6,0.4,0.7s0.4,0.3,0.7,0.5
		c0.2,0.1,0.5,0.2,0.8,0.2s0.6-0.1,0.8-0.2s0.5-0.2,0.7-0.5c0.2-0.2,0.3-0.5,0.4-0.7C66.2,73.6,66.3,73.2,66.3,72.8z M69.8,69.5v5.6
		h3.1v1.1h-4.3v-6.6H69.8z M73.7,76.1v-6.6h1.2v6.6H73.7z M79.7,72.6c0.5,0.7,0.9,1.3,1.1,1.8c0-0.9-0.1-1.4-0.1-1.9v-3h1.2v6.6
		h-1.2l-2.2-3.1c-0.4-0.5-0.8-1.1-1.2-1.9c0,0.8,0.1,1.4,0.1,1.9v3h-1.2v-6.6h1.3L79.7,72.6z M87.1,74.4h-2.5L84,76.1h-1.3l2.6-6.6
		h1.1l2.6,6.6h-1.3L87.1,74.4z M85.9,71.1c-0.2,0.7-0.4,1.3-0.7,1.7L85,73.4h1.7l-0.2-0.6C86.4,72.3,86.1,71.8,85.9,71.1z
		 M90.8,70.5c0,0.7-0.6,1.3-1.3,1.3s-1.3-0.6-1.3-1.3s0.6-1.3,1.4-1.3C90.3,69.2,90.8,69.8,90.8,70.5z M88.5,70.5
		c0,0.6,0.4,1.1,1,1.1s1-0.5,1-1.1s-0.4-1.1-1-1.1C89,69.5,88.5,69.9,88.5,70.5z M89.3,71.2H89v-1.3h0.5c0.2,0,0.3,0,0.4,0.1
		s0.2,0.2,0.2,0.2c0,0.2-0.1,0.2-0.2,0.3c0.2,0,0.2,0.2,0.2,0.3c0,0.2,0.1,0.2,0.1,0.3h-0.3c0-0.1-0.1-0.2-0.1-0.3
		c0-0.2-0.1-0.2-0.2-0.2h-0.2L89.3,71.2z M89.3,70.5h0.2c0.2,0,0.3-0.1,0.3-0.2s-0.1-0.2-0.2-0.2h-0.2L89.3,70.5L89.3,70.5z"/>
</g>
</svg>
