<svg width="11" height="13" viewBox="0 0 11 13" fill="none" xmlns="http://www.w3.org/2000/svg">
<path d="M9.46755 5.12891C9.46755 5.12891 9.17343 8.77703 9.0028 10.3137C8.92155 11.0477 8.46818 11.4778 7.72555 11.4913C6.31234 11.5168 4.89751 11.5184 3.48484 11.4886C2.77039 11.474 2.3246 11.0385 2.24497 10.3175C2.07326 8.76728 1.78076 5.12891 1.78076 5.12891" stroke="#130F26" stroke-linecap="round" stroke-linejoin="round"/>
<path d="M10.2168 3.38021H1.03125" stroke="#130F26" stroke-linecap="round" stroke-linejoin="round"/>
<path d="M8.44706 3.38011C8.02185 3.38011 7.65569 3.07948 7.57227 2.66294L7.44064 2.00428C7.35939 1.7004 7.08423 1.49023 6.7706 1.49023H4.47773C4.1641 1.49023 3.88894 1.7004 3.80769 2.00428L3.67606 2.66294C3.59264 3.07948 3.22648 3.38011 2.80127 3.38011" stroke="#130F26" stroke-linecap="round" stroke-linejoin="round"/>
</svg>
