<svg width="168" height="30" viewBox="0 0 168 30" fill="none" xmlns="http://www.w3.org/2000/svg">
<path d="M29.8062 12.75H9.3303C9.25529 13.0275 9.23279 16.905 9.3303 17.43H17.0706V29.82C14.138 30.2347 11.1483 29.772 8.47824 28.4902C5.8082 27.2084 3.57738 25.1649 2.06695 22.6173C0.556524 20.0697 -0.165905 17.1321 -0.00927815 14.1745C0.147349 11.217 1.17602 8.37206 2.94708 5.99823C4.71814 3.62441 7.15232 1.82797 9.94281 0.835344C12.7333 -0.157279 15.7552 -0.301657 18.6276 0.420406C21.5 1.14247 24.0944 2.69866 26.0837 4.89282C28.0731 7.08698 29.3683 9.82092 29.8062 12.75Z" fill="#FF2C2C"/>
<path d="M135.823 8.41504H143.541C145.424 12.0375 147.292 15.66 149.227 19.3425L154.912 8.41504H162.622V25.3875H157.784C157.784 25.3875 157.784 25.3425 157.784 25.3125V13.3125C157.732 13.35 157.784 13.3125 157.732 13.3125L151.199 25.395H147.449C145.274 21.37 143.086 17.32 140.886 13.245H140.826V25.3875H135.928L135.823 8.41504Z" fill="black"/>
<path d="M78.386 25.3947V8.42969H86.1938C89.3065 12.5022 92.4566 16.6047 95.5918 20.7147L95.6518 20.6772V8.42969H100.624C100.699 8.69219 100.737 24.3522 100.662 25.3872H92.8916L83.4937 13.1097H83.4262V25.3947H78.386Z" fill="black"/>
<path d="M127.828 8.41469H132.793C132.883 8.49719 132.846 8.60219 132.846 8.69219C132.846 12.2922 132.846 15.8997 132.846 19.4997C132.85 20.2047 132.767 20.9075 132.598 21.5922C132.415 22.462 131.99 23.2626 131.374 23.9031C130.757 24.5435 129.973 24.998 129.111 25.2147C128.381 25.4356 127.623 25.5543 126.861 25.5672C125.938 25.5672 125.023 25.5672 124.101 25.5672H118.805C117.828 25.5842 116.853 25.4604 115.91 25.1997C114.994 24.9721 114.165 24.4804 113.527 23.7857C112.888 23.091 112.467 22.2239 112.317 21.2922C112.184 20.6256 112.121 19.9469 112.13 19.2672C112.13 15.7497 112.13 12.2247 112.13 8.70719C112.108 8.61603 112.108 8.52085 112.13 8.42969C112.4 8.36969 116.728 8.35469 117.125 8.42969C117.148 8.5562 117.148 8.68567 117.125 8.81219V18.1272C117.118 18.4959 117.14 18.8646 117.193 19.2297C117.227 19.7681 117.468 20.2726 117.864 20.6385C118.261 21.0043 118.783 21.2035 119.323 21.1947C119.535 21.206 119.748 21.206 119.96 21.1947C121.61 21.1947 123.253 21.1947 124.903 21.1947C125.212 21.2009 125.52 21.1808 125.826 21.1347C126.308 21.0841 126.756 20.8641 127.091 20.5139C127.426 20.1637 127.626 19.706 127.656 19.2222C127.711 18.8322 127.736 18.4385 127.731 18.0447V8.41469H127.828Z" fill="black"/>
<path d="M77.0359 25.41H71.4406L69.8805 22.41H59.6651L58.165 25.41H52.6448C55.5499 19.785 58.4575 14.1775 61.3677 8.58754C61.4052 8.52004 61.4277 8.45254 61.5102 8.41504H68.0205L77.0359 25.41ZM64.7278 12.33C63.6628 14.49 62.6202 16.5825 61.5702 18.69H67.9755L64.7278 12.33Z" fill="black"/>
<path d="M47.4995 12.6229V25.3729H42.4743V12.6229H35.4165V8.42285H54.5499V12.6229H47.4995Z" fill="black"/>
<path d="M108.927 25.4022H103.955V8.42969H108.905C108.98 8.65469 109.002 24.8922 108.927 25.4022Z" fill="black"/>
<path d="M29.7762 17.46C29.4222 19.5992 28.6086 21.6363 27.3915 23.4309C26.1743 25.2255 24.5825 26.7348 22.7258 27.855C22.6583 27.525 22.6508 17.82 22.7258 17.46H29.7762Z" fill="#FF2C2C"/>
<path d="M167.775 24.2471C167.614 24.5465 167.476 24.8573 167.362 25.1771C167.302 25.2296 167.235 25.2221 167.145 25.1771L166.815 24.3146H166.762V25.1321C166.723 25.1613 166.676 25.1771 166.627 25.1771C166.579 25.1771 166.531 25.1613 166.492 25.1321V23.8121C166.616 23.771 166.751 23.771 166.875 23.8121L167.257 24.7496L167.602 23.8346C167.743 23.8047 167.889 23.8047 168.03 23.8346V25.2071C167.996 25.2277 167.957 25.2385 167.917 25.2385C167.878 25.2385 167.839 25.2277 167.805 25.2071L167.775 24.2471Z" fill="black"/>
<path d="M165.705 25.1772C165.66 25.1985 165.612 25.2095 165.562 25.2095C165.513 25.2095 165.464 25.1985 165.42 25.1772V24.1122C165.277 24.0072 165.127 24.1122 165.015 24.0147C164.995 23.9833 164.984 23.9469 164.984 23.9097C164.984 23.8725 164.995 23.836 165.015 23.8047H166.095C166.116 23.8368 166.128 23.8747 166.128 23.9134C166.128 23.9522 166.116 23.99 166.095 24.0222C165.982 24.0897 165.84 24.0222 165.705 24.0897V25.1772Z" fill="black"/>
</svg>
